<?xml version="1.0" encoding="iso-8859-1"?>
<!-- Generator: Adobe Illustrator 16.0.0, SVG Export Plug-In . SVG Version: 6.00 Build 0)  -->
<!DOCTYPE svg PUBLIC "-//W3C//DTD SVG 1.1//EN" "http://www.w3.org/Graphics/SVG/1.1/DTD/svg11.dtd">
<svg version="1.1" id="Capa_1" xmlns="http://www.w3.org/2000/svg" xmlns:xlink="http://www.w3.org/1999/xlink" x="0px" y="0px"
	 width="533.333px" height="533.333px" viewBox="0 0 533.333 533.333" fill="gray"
	 xml:space="preserve">
<g>
	<path d="M0.419,452.95c-0.127-1.318-0.235-2.641-0.304-3.975C0.183,450.31,0.292,451.632,0.419,452.95z M122.869,294.348
		c47.922,1.427,80.069-48.28,71.803-111.04c-8.278-62.75-53.852-113.108-101.774-114.543C44.966,67.343,12.824,115.37,21.099,178.14
		C29.371,240.883,74.928,292.918,122.869,294.348z M533.333,133.333V88.901C533.333,40.005,493.343,0,444.449,0H88.898
		C40.838,0,1.393,38.663,0.063,86.42c30.397-26.764,72.564-49.123,116.08-49.123c46.512,0,186.065,0,186.065,0l-41.64,35.218
		h-58.993c39.13,15.002,59.977,60.481,59.977,107.147c0,39.192-21.776,72.893-52.546,96.858
		c-30.022,23.387-35.714,33.181-35.714,53.062c0,16.968,32.159,45.833,48.975,57.701c49.157,34.655,65.06,66.83,65.06,120.55
		c0,8.558-1.063,17.099-3.159,25.5H444.45c48.894,0,88.884-39.974,88.884-88.9V166.667h-100v100H400v-100H300v-33.333H400v-100
		h33.334v100H533.333z M96.815,398.925c11.257,0,21.574-0.308,32.258-0.308c-14.139-13.715-25.326-30.521-25.326-51.239
		c0-12.295,3.939-24.134,9.444-34.646c-5.616,0.4-11.349,0.518-17.253,0.518c-38.727,0-71.618-12.54-95.939-33.258v35.022
		l0.003,105.068C27.836,406.866,60.882,398.925,96.815,398.925z M1.781,462.113c-0.58-2.842-1.024-5.732-1.324-8.663
		C0.756,456.381,1.202,459.271,1.781,462.113z M237.213,496.273c-7.843-30.628-35.653-45.812-74.42-72.691
		c-14.1-4.546-29.633-7.226-46.299-7.399c-46.676-0.503-90.161,18.198-114.696,46.026c8.292,40.473,44.289,71.124,87.101,71.124
		h149.19c0.946-5.796,1.404-11.788,1.404-17.933C239.493,508.871,238.693,502.487,237.213,496.273z"/>
</g>

</svg>
