<?xml version="1.0" encoding="iso-8859-1"?>
<!DOCTYPE svg PUBLIC "-//W3C//DTD SVG 1.1//EN" "http://www.w3.org/Graphics/SVG/1.1/DTD/svg11.dtd">
<svg version="1.1" id="Capa_1" xmlns="http://www.w3.org/2000/svg" xmlns:xlink="http://www.w3.org/1999/xlink" x="0px" y="0px"
	 viewBox="0 0 492.611 492.611" xml:space="preserve" fill="gray">
<g id="XMLID_107_">
	<path id="XMLID_111_" d="M224.949,37.499H32.539C14.57,37.499,0,52.07,0,70.049v352.514c0,17.978,14.57,32.55,32.539,32.55h192.41
		c17.972,0,32.543-14.571,32.543-32.55V70.049C257.492,52.07,242.921,37.499,224.949,37.499z M128.746,436.713
		c-11.359,0-20.558-9.205-20.558-20.557c0-11.352,9.198-20.557,20.558-20.557c11.344,0,20.555,9.205,20.555,20.557
		C149.301,427.508,140.09,436.713,128.746,436.713z M221.096,374.757c0,3.744-3.042,6.787-6.795,6.787H43.191
		c-3.754,0-6.797-3.043-6.797-6.787V78.907c0-3.745,3.043-6.787,6.797-6.787h171.109c3.753,0,6.795,3.042,6.795,6.787V374.757z"/>
	<path id="XMLID_110_" d="M429.395,80.488c-6.762-6.763-17.714-6.763-24.476,0c-6.765,6.762-6.765,17.716,0,24.477
		c70.778,70.797,70.778,185.978,0,256.774c-6.765,6.762-6.765,17.716,0,24.478c3.381,3.381,7.81,5.071,12.237,5.071
		c4.43,0,8.858-1.69,12.238-5.071C513.684,301.931,513.684,164.774,429.395,80.488z"/>
	<path id="XMLID_109_" d="M378.917,130.981c-6.761-6.762-17.714-6.762-24.476,0c-6.762,6.754-6.762,17.718,0,24.479
		c42.936,42.946,42.936,112.839,0,155.786c-6.762,6.762-6.762,17.725,0,24.478c3.381,3.381,7.809,5.071,12.239,5.071
		c4.428,0,8.856-1.69,12.236-5.071C435.364,279.279,435.364,187.428,378.917,130.981z"/>
	<path id="XMLID_108_" d="M303.457,181.959c-6.762,6.752-6.762,17.716,0,24.477c14.824,14.843,14.824,38.99,0,53.832
		c-6.762,6.764-6.762,17.726,0,24.479c3.381,3.381,7.809,5.07,12.238,5.07c4.428,0,8.857-1.689,12.24-5.07
		c28.33-28.341,28.33-74.449,0-102.789C321.171,175.196,310.219,175.196,303.457,181.959z"/>
</g>
</svg>
